<svg width="73" height="40" viewBox="0 0 73 40" fill="none" xmlns="http://www.w3.org/2000/svg">
<path fill-rule="evenodd" clip-rule="evenodd" d="M9.82076 21.7068C9.82076 21.7068 9.82076 24.1752 11.5665 25.9235C12.3995 26.7585 13.4611 27.3271 14.6169 27.5577C15.7727 27.7883 16.9708 27.6704 18.0597 27.2191C19.1486 26.7677 20.0794 26.0031 20.7345 25.0219C21.3895 24.0407 21.7393 22.887 21.7396 21.7068C21.742 23.5104 21.5957 25.311 21.3025 27.0906C20.826 29.5476 19.1037 33.6381 15.7826 33.6381C12.4616 33.6381 11.1348 29.4357 10.4067 27.2357C9.67872 25.0358 9.82076 21.7068 9.82076 21.7068Z" fill="url(#paint0_linear_47_79)"/>
<path fill-rule="evenodd" clip-rule="evenodd" d="M15.7773 9.72134C15.7773 9.72134 21.7334 10.4023 21.7334 21.7064C21.7334 33.0106 15.7773 33.6372 15.7773 33.6372C17.3655 33.692 18.949 33.4327 20.4371 32.8741C21.9251 32.3156 23.2886 31.4687 24.4496 30.382C26.3627 28.6151 27.8334 25.8898 27.8387 21.6827C27.8438 17.4756 26.4007 14.6901 24.4406 12.9675C20.0624 9.13931 15.7773 9.72134 15.7773 9.72134Z" fill="url(#paint1_linear_47_79)"/>
<path fill-rule="evenodd" clip-rule="evenodd" d="M14.6152 6.47388C16.4893 6.41822 20.058 6.37622 21.583 6.37622C23.108 6.37622 27.8329 6.53475 27.8329 11.1998V21.416C27.8329 21.416 27.6889 12.7688 20.1997 12.7688C12.7106 12.7688 12.4942 6.53573 14.6152 6.47388Z" fill="#355070"/>
<path fill-rule="evenodd" clip-rule="evenodd" d="M7.27954 30.1636C3.72021 26.3808 3.86485 23.326 3.72021 21.7081C3.72021 18.5063 11.1594 20.5933 10.8382 21.7081C8.94983 28.2548 13.0158 33.6389 15.7786 33.6389C15.8676 33.6821 10.8382 33.9475 7.27954 30.1636Z" fill="#355070"/>
<path d="M9.44361 18.0537C11.048 18.0537 12.3486 16.751 12.3486 15.1441C12.3486 13.5373 11.048 12.2346 9.44361 12.2346C7.8392 12.2346 6.53857 13.5373 6.53857 15.1441C6.53857 16.751 7.8392 18.0537 9.44361 18.0537Z" fill="#355070"/>
<path fill-rule="evenodd" clip-rule="evenodd" d="M68.6998 15.7219C68.6998 14.326 68.2162 13.3902 67.2622 12.7794C66.5518 12.327 63.36 12.2231 63.36 12.2231C63.3018 12.2212 63.2438 12.231 63.1894 12.252C63.135 12.2731 63.0854 12.3047 63.0436 12.3454C63.0017 12.3859 62.9684 12.4345 62.9457 12.4882C62.9229 12.5419 62.9112 12.5997 62.9111 12.658V28.7675C62.9111 30.1634 63.3948 31.0992 64.3487 31.7099C65.0593 32.1624 68.2509 32.2662 68.2509 32.2662C68.3092 32.2682 68.3672 32.2583 68.4215 32.2373C68.4759 32.2163 68.5255 32.1847 68.5674 32.144C68.6092 32.1035 68.6426 32.0549 68.6653 32.0012C68.6881 31.9474 68.6998 31.8897 68.6998 31.8314V15.7219Z" fill="#355070"/>
<path fill-rule="evenodd" clip-rule="evenodd" d="M53.6282 12.8908C52.6486 13.4976 52.1906 14.4253 52.1906 15.8136V17.8821C52.1957 19.4199 52.202 21.0106 52.1558 22.5804C52.1096 24.15 52.0284 27.3916 51.7531 29.0208C51.4316 30.9163 49.5677 34.7341 48.6807 35.706C48.6807 36.3643 52.3969 35.8965 54.2262 34.6969C55.8467 33.6315 56.9086 31.997 57.5678 29.5537C57.8759 28.3997 58.1232 25.5569 58.1264 23.8571C58.1336 20.4218 58.1264 12.6464 58.1264 12.6464C58.1264 12.5867 58.1141 12.5277 58.0904 12.4731C58.0667 12.4184 58.0319 12.3692 57.9884 12.3285C57.9449 12.2878 57.8936 12.2565 57.8374 12.2365C57.7813 12.2166 57.7217 12.2083 57.6624 12.2125C57.6624 12.2125 54.3556 12.4367 53.632 12.8862L53.6282 12.8908Z" fill="#355070"/>
<path fill-rule="evenodd" clip-rule="evenodd" d="M45.6603 14.1833C46.394 14.8973 46.9464 15.7769 47.2714 16.7484C47.6502 17.9229 47.8046 19.1585 47.7265 20.3903L47.327 30.6167C47.3192 30.8344 47.2394 31.0435 47.1001 31.2111C46.961 31.3787 46.7701 31.4952 46.5577 31.5424C45.7578 31.7205 44.8305 31.8962 43.8044 32.0632C42.692 32.24 41.5673 32.3271 40.441 32.3237C40.1329 32.3237 39.832 32.3185 39.5251 32.307C38.3239 32.2684 37.13 32.102 35.9639 31.8106C34.9765 31.5711 34.0438 31.1452 33.2158 30.5558C32.4602 29.9979 31.8607 29.2545 31.4753 28.3972C31.0503 27.3878 30.868 26.2925 30.9433 25.1997C30.945 24.1271 31.2606 23.0787 31.851 22.184C32.3972 21.4138 33.1177 20.7841 33.9533 20.346C34.821 19.8959 35.7585 19.5958 36.726 19.4583C37.5062 19.3416 38.2939 19.2821 39.0828 19.2803C39.2778 19.2803 39.4699 19.2803 39.6568 19.2916L41.9017 19.3802C41.9013 18.9943 41.7884 18.6168 41.5767 18.2943C41.3669 17.9895 41.0845 17.742 40.755 17.5742C40.397 17.3932 40.0144 17.2652 39.6194 17.1947C39.1916 17.1179 38.7589 17.0718 38.3245 17.057C37.6244 17.039 36.924 17.0799 36.2307 17.1794C35.6469 17.2583 35.0683 17.3726 34.4983 17.5218C34.274 17.5801 34.0363 17.5563 33.8278 17.4549C33.6194 17.3535 33.4538 17.181 33.3608 16.9684C33.2941 16.8183 33.2308 16.6731 33.1739 16.5354C32.9473 15.8123 32.7881 15.0697 32.6984 14.3171C32.688 14.1299 32.6818 13.9304 32.6808 13.7184C32.6796 13.5003 32.751 13.288 32.8838 13.1152C33.0167 12.9423 33.2033 12.8187 33.414 12.764C34.3712 12.5154 35.3428 12.3264 36.3233 12.1983C37.3869 12.0528 38.4606 11.9947 39.5336 12.0244C40.7235 12.0573 41.9026 12.2617 43.0344 12.6312C44.0122 12.9505 44.9085 13.4802 45.6603 14.1833ZM41.8319 27.668L42.0064 23.1713L39.661 23.0817C39.5821 23.0817 39.5018 23.0766 39.4237 23.0766C38.6904 23.0577 37.965 23.2327 37.3205 23.5837C37.0049 23.7463 36.7391 23.9914 36.5514 24.2931C36.3637 24.5948 36.261 24.9418 36.2545 25.2973C36.2121 25.7637 36.3282 26.231 36.584 26.6231C36.8152 26.9448 37.1226 27.2038 37.4785 27.3771C37.8357 27.5515 38.2162 27.6731 38.6083 27.7381C38.9685 27.8016 39.3323 27.8418 39.6977 27.8585C40.0308 27.863 40.364 27.8503 40.6959 27.8204C41.0203 27.8007 41.3433 27.7615 41.6631 27.7032L41.8319 27.668Z" fill="#355070"/>
<path d="M55.1958 9.78251C56.7957 9.78251 58.0926 8.48352 58.0926 6.88113C58.0926 5.27874 56.7957 3.97974 55.1958 3.97974C53.5958 3.97974 52.2988 5.27874 52.2988 6.88113C52.2988 8.48352 53.5958 9.78251 55.1958 9.78251Z" fill="#355070"/>
<path d="M65.7675 9.78251C67.3675 9.78251 68.6645 8.48352 68.6645 6.88113C68.6645 5.27874 67.3675 3.97974 65.7675 3.97974C64.1676 3.97974 62.8706 5.27874 62.8706 6.88113C62.8706 8.48352 64.1676 9.78251 65.7675 9.78251Z" fill="#355070"/>
<defs>
<linearGradient id="paint0_linear_47_79" x1="10.0839" y1="25.9424" x2="16.5621" y2="27.2665" gradientUnits="userSpaceOnUse">
<stop stop-color="#942900"/>
<stop offset="0.16" stop-color="#AE3514"/>
<stop offset="0.36" stop-color="#C94129"/>
<stop offset="0.57" stop-color="#DD4A39"/>
<stop offset="0.79" stop-color="#E94F42"/>
<stop offset="1" stop-color="#ED5145"/>
</linearGradient>
<linearGradient id="paint1_linear_47_79" x1="21.8081" y1="16.6126" x2="21.8081" y2="12.9476" gradientUnits="userSpaceOnUse">
<stop stop-color="#FF7A6B"/>
<stop offset="0.2" stop-color="#FD7667"/>
<stop offset="0.39" stop-color="#F96B5B"/>
<stop offset="0.58" stop-color="#F15947"/>
<stop offset="0.77" stop-color="#E63F2C"/>
<stop offset="0.96" stop-color="#D71F08"/>
<stop offset="1" stop-color="#D41700"/>
</linearGradient>
</defs>
</svg>
